<svg xmlns="http://www.w3.org/2000/svg" width="68" height="80" viewBox="0 0 68 80">
<defs>
  <linearGradient id="bn" x1="0%" y1="0%" x2="100%" y2="100%"><stop offset="0%" stop-color="#d8d0b8"/><stop offset="100%" stop-color="#888070"/></linearGradient>
  <radialGradient id="ey" cx="40%" cy="35%" r="60%"><stop offset="0%" stop-color="#ff4040"/><stop offset="100%" stop-color="#600000"/></radialGradient>
</defs>
<ellipse cx="34" cy="78" rx="22" ry="3" fill="rgba(0,0,0,0.4)"/>
<path d="M34 8 Q46 14 50 28 Q50 50 34 58 Q18 50 18 28 Q22 14 34 8Z" fill="url(#bn)"/>
<line x1="24" y1="30" x2="18" y2="30" stroke="#c0b8a0" stroke-width="1.5" opacity="0.6"/>
<line x1="24" y1="36" x2="18" y2="36" stroke="#c0b8a0" stroke-width="1.5" opacity="0.6"/>
<line x1="24" y1="42" x2="18" y2="42" stroke="#c0b8a0" stroke-width="1.5" opacity="0.6"/>
<line x1="44" y1="30" x2="50" y2="30" stroke="#c0b8a0" stroke-width="1.5" opacity="0.6"/>
<line x1="44" y1="36" x2="50" y2="36" stroke="#c0b8a0" stroke-width="1.5" opacity="0.6"/>
<line x1="44" y1="42" x2="50" y2="42" stroke="#c0b8a0" stroke-width="1.5" opacity="0.6"/>
<line x1="2" y1="36" x2="18" y2="30" stroke="#a09888" stroke-width="4" stroke-linecap="round"/>
<line x1="2" y1="42" x2="18" y2="38" stroke="#a09888" stroke-width="4" stroke-linecap="round"/>
<line x1="2" y1="48" x2="18" y2="44" stroke="#a09888" stroke-width="4" stroke-linecap="round"/>
<line x1="66" y1="36" x2="50" y2="30" stroke="#a09888" stroke-width="4" stroke-linecap="round"/>
<line x1="66" y1="42" x2="50" y2="38" stroke="#a09888" stroke-width="4" stroke-linecap="round"/>
<line x1="66" y1="48" x2="50" y2="44" stroke="#a09888" stroke-width="4" stroke-linecap="round"/>
<path d="M30 56 Q28 64 24 70 Q28 72 34 72 Q40 72 44 70 Q40 64 38 56Z" fill="url(#bn)"/>
<path d="M34 64 Q34 58 36 52" fill="none" stroke="#b0a890" stroke-width="2"/>
<ellipse cx="34" cy="20" rx="14" ry="14" fill="url(#bn)"/>
<ellipse cx="34" cy="18" rx="10" ry="9" fill="#c0b8a0" opacity="0.5"/>
<rect x="22" y="16" width="10" height="8" rx="1" fill="#0a0808"/>
<rect x="36" y="16" width="10" height="8" rx="1" fill="#0a0808"/>
<circle cx="27" cy="20" r="4" fill="url(#ey)"/>
<circle cx="41" cy="20" r="4" fill="url(#ey)"/>
<circle cx="26" cy="19" r="1.5" fill="#ff9090" opacity="0.7"/>
<circle cx="40" cy="19" r="1.5" fill="#ff9090" opacity="0.7"/>
<path d="M26 28 L24 35 L28 35Z" fill="#d0c8a8"/>
<path d="M30 28 L28 35 L32 35Z" fill="#d0c8a8"/>
<path d="M34 28 L32 35 L36 35Z" fill="#d0c8a8"/>
<path d="M38 28 L36 35 L40 35Z" fill="#d0c8a8"/>
<path d="M42 28 L40 35 L44 35Z" fill="#d0c8a8"/>
<path d="M34 58 Q42 62 50 58 Q56 48 60 38 Q64 28 62 22 Q58 18 56 24 Q52 34 50 40 Q46 52 38 58Z" fill="url(#bn)"/>
<circle cx="62" cy="20" r="4" fill="#c8c0a8" stroke="#a09888" stroke-width="0.5"/>
<line x1="62" y1="17" x2="64" y2="13" stroke="#a09888" stroke-width="1.5"/>
</svg>