<svg xmlns="http://www.w3.org/2000/svg" width="68" height="80" viewBox="0 0 68 80">
<defs>
  <linearGradient id="cp" x1="0%" y1="0%" x2="100%" y2="100%"><stop offset="0%" stop-color="#c07830"/><stop offset="100%" stop-color="#5a3010"/></linearGradient>
  <radialGradient id="ey" cx="35%" cy="30%" r="65%"><stop offset="0%" stop-color="#ff6060"/><stop offset="50%" stop-color="#dd0000"/><stop offset="100%" stop-color="#5a0000"/></radialGradient>
</defs>
<ellipse cx="34" cy="78" rx="18" ry="3" fill="rgba(0,0,0,0.35)"/>
<rect x="20" y="58" width="10" height="20" rx="1" fill="url(#cp)"/>
<rect x="36" y="58" width="10" height="20" rx="1" fill="url(#cp)"/>
<line x1="2" y1="36" x2="18" y2="30" stroke="#8a5020" stroke-width="5" stroke-linecap="round"/>
<line x1="2" y1="46" x2="18" y2="42" stroke="#8a5020" stroke-width="5" stroke-linecap="round"/>
<line x1="2" y1="56" x2="18" y2="52" stroke="#8a5020" stroke-width="5" stroke-linecap="round"/>
<line x1="66" y1="36" x2="50" y2="30" stroke="#8a5020" stroke-width="5" stroke-linecap="round"/>
<line x1="66" y1="46" x2="50" y2="42" stroke="#8a5020" stroke-width="5" stroke-linecap="round"/>
<line x1="66" y1="56" x2="50" y2="52" stroke="#8a5020" stroke-width="5" stroke-linecap="round"/>
<rect x="14" y="26" width="40" height="35" rx="4" fill="url(#cp)"/>
<line x1="14" y1="35" x2="54" y2="35" stroke="#7a4818" stroke-width="1.5" opacity="0.6"/>
<line x1="14" y1="44" x2="54" y2="44" stroke="#7a4818" stroke-width="1.5" opacity="0.6"/>
<line x1="14" y1="53" x2="54" y2="53" stroke="#7a4818" stroke-width="1.5" opacity="0.6"/>
<path d="M20 26 Q20 3 34 3 Q48 3 48 26" fill="url(#cp)"/>
<path d="M22 26 Q22 6 34 5 Q46 6 46 26" fill="#d08840" opacity="0.5"/>
<circle cx="34" cy="16" r="12" fill="url(#ey)"/>
<circle cx="34" cy="16" r="7" fill="#ff2020"/>
<circle cx="34" cy="16" r="3" fill="#ff8060"/>
<circle cx="31" cy="13" r="2" fill="#ffffff" opacity="0.7"/>
<line x1="26" y1="5" x2="22" y2="0" stroke="#7a4818" stroke-width="2" stroke-linecap="round"/>
<line x1="42" y1="5" x2="46" y2="0" stroke="#7a4818" stroke-width="2" stroke-linecap="round"/>
<path d="M24 27 Q28 30 24 33" fill="none" stroke="#5a2808" stroke-width="1.5"/>
<path d="M44 27 Q40 30 44 33" fill="none" stroke="#5a2808" stroke-width="1.5"/>
</svg>