<svg xmlns="http://www.w3.org/2000/svg" width="68" height="80" viewBox="0 0 68 80">
<defs>
  <linearGradient id="ft" x1="0%" y1="0%" x2="100%" y2="100%"><stop offset="0%" stop-color="#404858"/><stop offset="100%" stop-color="#181c28"/></linearGradient>
  <linearGradient id="bk" x1="0%" y1="0%" x2="100%" y2="100%"><stop offset="0%" stop-color="#d0b020"/><stop offset="100%" stop-color="#907010"/></linearGradient>
</defs>
<ellipse cx="34" cy="78" rx="15" ry="3" fill="rgba(0,0,0,0.3)"/>
<rect x="26" y="60" width="8" height="18" rx="2" fill="#a08010"/>
<rect x="38" y="60" width="8" height="18" rx="2" fill="#a08010"/>
<path d="M2 30 Q8 16 22 20 L26 36 Q16 32 14 46Z" fill="url(#ft)"/>
<path d="M4 32 Q10 20 20 24 L23 36 Q14 33 14 44Z" fill="#5a606e" opacity="0.5"/>
<line x1="14" y1="46" x2="4" y2="52" stroke="#30343e" stroke-width="3" stroke-linecap="round"/>
<line x1="14" y1="46" x2="6" y2="58" stroke="#30343e" stroke-width="2.5" stroke-linecap="round"/>
<path d="M66 30 Q60 16 46 20 L42 36 Q52 32 54 46Z" fill="url(#ft)"/>
<path d="M64 32 Q58 20 48 24 L45 36 Q54 33 54 44Z" fill="#5a606e" opacity="0.5"/>
<line x1="54" y1="46" x2="64" y2="52" stroke="#30343e" stroke-width="3" stroke-linecap="round"/>
<line x1="54" y1="46" x2="62" y2="58" stroke="#30343e" stroke-width="2.5" stroke-linecap="round"/>
<ellipse cx="34" cy="42" rx="16" ry="18" fill="url(#ft)"/>
<ellipse cx="34" cy="40" rx="12" ry="12" fill="#505868" opacity="0.4"/>
<ellipse cx="34" cy="18" rx="14" ry="15" fill="url(#ft)"/>
<ellipse cx="34" cy="16" rx="10" ry="10" fill="#505868" opacity="0.4"/>
<path d="M40 18 Q50 14 60 18 L58 22 Q48 18 40 22Z" fill="url(#bk)"/>
<path d="M56 17 L66 20 L57 23Z" fill="#e0c010"/>
<line x1="62" y1="12" x2="68" y2="10" stroke="#d0b010" stroke-width="2.5" stroke-linecap="round"/>
<line x1="62" y1="16" x2="68" y2="15" stroke="#c0a010" stroke-width="2" stroke-linecap="round"/>
<circle cx="26" cy="15" r="4" fill="#0a0808"/>
<circle cx="25" cy="14" r="1.8" fill="#ff6020" opacity="0.9"/>
<circle cx="24" cy="13" r="1" fill="#ffffff" opacity="0.7"/>
<path d="M26 64 L24 74" stroke="#a08010" stroke-width="2.5" stroke-linecap="round"/>
<path d="M24 74 L18 76" stroke="#a08010" stroke-width="2" stroke-linecap="round"/>
<path d="M24 74 L22 78" stroke="#a08010" stroke-width="2" stroke-linecap="round"/>
<path d="M42 62 L44 72" stroke="#a08010" stroke-width="2.5" stroke-linecap="round"/>
<path d="M44 72 L50 74" stroke="#a08010" stroke-width="2" stroke-linecap="round"/>
<path d="M44 72 L46 78" stroke="#a08010" stroke-width="2" stroke-linecap="round"/>
</svg>