<svg xmlns="http://www.w3.org/2000/svg" width="68" height="80" viewBox="0 0 68 80">
<defs>
  <linearGradient id="rb" x1="0%" y1="0%" x2="100%" y2="100%"><stop offset="0%" stop-color="#7a5028"/><stop offset="100%" stop-color="#3a2010"/></linearGradient>
  <radialGradient id="hd" cx="35%" cy="30%" r="65%"><stop offset="0%" stop-color="#c09070"/><stop offset="100%" stop-color="#7a4828"/></radialGradient>
  <linearGradient id="ch" x1="0%" y1="0%" x2="100%" y2="100%"><stop offset="0%" stop-color="#ffe060"/><stop offset="100%" stop-color="#c0a010"/></linearGradient>
</defs>
<ellipse cx="30" cy="78" rx="14" ry="3" fill="rgba(0,0,0,0.3)"/>
<path d="M16 60 Q16 78 24 78 L30 78" stroke="#7a3818" stroke-width="3" fill="none" stroke-linecap="round"/>
<path d="M30 78 Q38 78 36 68 Q34 58 34 50" stroke="#7a3818" stroke-width="2.5" fill="none" stroke-linecap="round"/>
<rect x="20" y="56" width="10" height="20" rx="2" fill="url(#rb)"/>
<rect x="32" y="56" width="10" height="20" rx="2" fill="url(#rb)"/>
<rect x="18" y="70" width="14" height="9" rx="2" fill="#2a1408"/>
<rect x="30" y="70" width="14" height="9" rx="2" fill="#2a1408"/>
<path d="M14 28 L54 28 L52 60 L16 60Z" fill="url(#rb)"/>
<path d="M14 28 L18 60" stroke="#5a3018" stroke-width="0.8" opacity="0.5"/>
<path d="M54 28 L50 60" stroke="#5a3018" stroke-width="0.8" opacity="0.5"/>
<line x1="14" y1="42" x2="54" y2="42" stroke="#5a3018" stroke-width="1" opacity="0.4"/>
<rect x="48" y="28" width="6" height="20" rx="2" fill="url(#rb)"/>
<path d="M48 38 L60 32 L64 42 L52 48Z" fill="url(#ch)"/>
<circle cx="54" cy="36" r="2.5" fill="#c09010"/>
<circle cx="59" cy="41" r="2" fill="#c09010"/>
<circle cx="52" cy="44" r="2" fill="#c09010"/>
<ellipse cx="30" cy="16" rx="14" ry="14" fill="url(#hd)"/>
<ellipse cx="18" cy="7" rx="9" ry="9" fill="url(#hd)"/>
<ellipse cx="18" cy="7" rx="6" ry="6" fill="#d0a878"/>
<ellipse cx="42" cy="7" rx="9" ry="9" fill="url(#hd)"/>
<ellipse cx="42" cy="7" rx="6" ry="6" fill="#d0a878"/>
<circle cx="24" cy="18" r="3" fill="#100808"/>
<circle cx="23" cy="17" r="1.3" fill="#ffffff" opacity="0.8"/>
<circle cx="36" cy="18" r="3" fill="#100808"/>
<circle cx="35" cy="17" r="1.3" fill="#ffffff" opacity="0.8"/>
<ellipse cx="30" cy="23" rx="3" ry="2" fill="#d05050"/>
<line x1="20" y1="23" x2="10" y2="21" stroke="#c09870" stroke-width="1" opacity="0.7"/>
<line x1="20" y1="25" x2="10" y2="25" stroke="#c09870" stroke-width="1" opacity="0.7"/>
<line x1="40" y1="23" x2="50" y2="21" stroke="#c09870" stroke-width="1" opacity="0.7"/>
<line x1="40" y1="25" x2="50" y2="25" stroke="#c09870" stroke-width="1" opacity="0.7"/>
<circle cx="30" cy="8" r="4" fill="#c08868" opacity="0.6"/>
</svg>