<svg xmlns="http://www.w3.org/2000/svg" width="68" height="80" viewBox="0 0 68 80">
<defs>
  <linearGradient id="ar" x1="0%" y1="0%" x2="100%" y2="100%"><stop offset="0%" stop-color="#2a2040"/><stop offset="100%" stop-color="#0a0810"/></linearGradient>
  <linearGradient id="sw" x1="0%" y1="100%" x2="0%" y2="0%"><stop offset="0%" stop-color="#4060a0"/><stop offset="50%" stop-color="#c0d0f0"/><stop offset="100%" stop-color="#8090b0"/></linearGradient>
  <linearGradient id="gd" x1="0%" y1="0%" x2="100%" y2="0%"><stop offset="0%" stop-color="#c09020"/><stop offset="50%" stop-color="#f0d060"/><stop offset="100%" stop-color="#c09020"/></linearGradient>
  <radialGradient id="au" cx="50%" cy="50%" r="50%"><stop offset="0%" stop-color="#8000c0" stop-opacity="0.4"/><stop offset="100%" stop-color="#2000600" stop-opacity="0"/></radialGradient>
</defs>
<ellipse cx="34" cy="78" rx="20" ry="3" fill="rgba(0,0,0,0.5)"/>
<circle cx="34" cy="40" r="30" fill="url(#au)"/>
<rect x="24" y="60" width="10" height="18" rx="2" fill="url(#ar)"/>
<rect x="36" y="60" width="10" height="18" rx="2" fill="url(#ar)"/>
<rect x="22" y="70" width="14" height="9" rx="2" fill="#060408"/>
<rect x="34" y="70" width="14" height="9" rx="2" fill="#060408"/>
<rect x="1" y="18" width="5" height="44" rx="1" fill="url(#sw)"/><rect x="1" y="20" width="5" height="3" fill="#e0f0ff" opacity="0.6"/>
<rect x="1" y="60" width="14" height="4" rx="1" fill="url(#gd)"/>
<rect x="8" y="12" width="5" height="42" rx="1" fill="url(#sw)"/><rect x="8" y="14" width="5" height="3" fill="#e0f0ff" opacity="0.6"/>
<rect x="6" y="52" width="14" height="4" rx="1" fill="url(#gd)"/>
<rect x="62" y="18" width="5" height="44" rx="1" fill="url(#sw)"/><rect x="62" y="20" width="5" height="3" fill="#e0f0ff" opacity="0.6"/>
<rect x="53" y="60" width="14" height="4" rx="1" fill="url(#gd)"/>
<rect x="55" y="12" width="5" height="42" rx="1" fill="url(#sw)"/><rect x="55" y="14" width="5" height="3" fill="#e0f0ff" opacity="0.6"/>
<rect x="48" y="52" width="14" height="4" rx="1" fill="url(#gd)"/>
<path d="M16 26 L16 64 L52 64 L52 26Z" fill="url(#ar)"/>
<line x1="16" y1="38" x2="52" y2="38" stroke="#4030600" stroke-width="1" opacity="0.6"/>
<line x1="16" y1="52" x2="52" y2="52" stroke="#4030600" stroke-width="1" opacity="0.6"/>
<line x1="34" y1="26" x2="34" y2="64" stroke="#4030600" stroke-width="0.8" opacity="0.5"/>
<path d="M8 26 L16 22 L16 60 L8 64Z" fill="#180c30" stroke="#4030600" stroke-width="0.5"/>
<path d="M60 26 L52 22 L52 60 L60 64Z" fill="#180c30" stroke="#4030600" stroke-width="0.5"/>
<ellipse cx="34" cy="16" rx="16" ry="14" fill="url(#ar)" stroke="#4030600" stroke-width="0.5"/>
<path d="M18 16 Q18 2 34 2 Q50 2 50 16Z" fill="#0e0818"/>
<line x1="26" y1="2" x2="24" y2="-4" stroke="url(#gd)" stroke-width="2.5" stroke-linecap="round"/>
<line x1="30" y1="1" x2="29" y2="-5" stroke="url(#gd)" stroke-width="2.5" stroke-linecap="round"/>
<line x1="34" y1="0" x2="34" y2="-6" stroke="url(#gd)" stroke-width="2.5" stroke-linecap="round"/>
<line x1="38" y1="1" x2="39" y2="-5" stroke="url(#gd)" stroke-width="2.5" stroke-linecap="round"/>
<line x1="42" y1="2" x2="44" y2="-4" stroke="url(#gd)" stroke-width="2.5" stroke-linecap="round"/>
<rect x="24" y="12" width="9" height="7" rx="1" fill="#06040e"/>
<rect x="35" y="12" width="9" height="7" rx="1" fill="#06040e"/>
<circle cx="28" cy="15" r="3.5" fill="#8000c0" opacity="0.9"/>
<circle cx="39" cy="15" r="3.5" fill="#8000c0" opacity="0.9"/>
<circle cx="27" cy="14" r="1.2" fill="#d060ff" opacity="0.8"/>
<circle cx="38" cy="14" r="1.2" fill="#d060ff" opacity="0.8"/>
</svg>