<svg xmlns="http://www.w3.org/2000/svg" width="68" height="80" viewBox="0 0 68 80">
<defs>
  <linearGradient id="cl" x1="0%" y1="0%" x2="100%" y2="100%"><stop offset="0%" stop-color="#4a8040"/><stop offset="100%" stop-color="#1e4018"/></linearGradient>
  <linearGradient id="sk" x1="0%" y1="0%" x2="100%" y2="100%"><stop offset="0%" stop-color="#f0c090"/><stop offset="100%" stop-color="#b07040"/></linearGradient>
  <linearGradient id="bw" x1="0%" y1="0%" x2="100%" y2="100%"><stop offset="0%" stop-color="#8b5e2a"/><stop offset="100%" stop-color="#4a2e08"/></linearGradient>
</defs>
<ellipse cx="30" cy="78" rx="12" ry="3" fill="rgba(0,0,0,0.25)"/>
<rect x="23" y="57" width="9" height="20" rx="2" fill="url(#cl)"/>
<rect x="34" y="57" width="9" height="20" rx="2" fill="url(#cl)"/>
<rect x="20" y="70" width="13" height="9" rx="2" fill="#142010"/>
<rect x="33" y="70" width="13" height="9" rx="2" fill="#142010"/>
<path d="M16 28 L52 28 L49 60 L19 60Z" fill="url(#cl)"/>
<rect x="20" y="44" width="28" height="5" rx="1" fill="#2a1e08"/>
<rect x="31" y="43" width="6" height="7" rx="1" fill="#c8a020"/>
<rect x="48" y="30" width="6" height="22" rx="2" fill="url(#cl)"/>
<path d="M57 18 Q66 38 57 58" fill="none" stroke="url(#bw)" stroke-width="3.5" stroke-linecap="round"/>
<line x1="57" y1="18" x2="57" y2="58" stroke="#e8d8a0" stroke-width="0.8"/>
<line x1="34" y1="37" x2="57" y2="37" stroke="#a07030" stroke-width="1.5"/>
<polygon points="54,34 63,37 54,40" fill="#c84020"/>
<rect x="12" y="28" width="6" height="22" rx="2" fill="#3a2808"/>
<rect x="11" y="25" width="8" height="4" rx="1" fill="#4a3210"/>
<line x1="14" y1="28" x2="15" y2="50" stroke="#807040" stroke-width="4" stroke-dasharray="2,3" opacity="0.7"/>
<ellipse cx="33" cy="16" rx="12" ry="13" fill="url(#sk)"/>
<path d="M21 18 Q21 4 33 3 Q45 4 45 18Z" fill="#2a4820"/>
<path d="M27 9 Q33 6 39 9" fill="none" stroke="#5a8040" stroke-width="1.5" opacity="0.6"/>
<path d="M24 20 Q20 30 18 38" fill="none" stroke="#7a3a10" stroke-width="2.5" opacity="0.5"/>
<ellipse cx="28" cy="15" rx="2.5" ry="3" fill="#1e0e08" opacity="0.85"/>
<ellipse cx="38" cy="15" rx="2.5" ry="3" fill="#1e0e08" opacity="0.85"/>
<circle cx="28" cy="14" r="1" fill="#ffffff" opacity="0.6"/>
<circle cx="38" cy="14" r="1" fill="#ffffff" opacity="0.6"/>
<path d="M30 21 Q33 23 36 21" fill="none" stroke="#9a5020" stroke-width="1"/>
</svg>