<svg xmlns="http://www.w3.org/2000/svg" width="68" height="80" viewBox="0 0 68 80">
<defs>
  <linearGradient id="wd" x1="0%" y1="0%" x2="100%" y2="100%">
    <stop offset="0%" stop-color="#8a5e2a"/>
    <stop offset="100%" stop-color="#5a3810"/>
  </linearGradient>
  <linearGradient id="mt" x1="0%" y1="0%" x2="100%" y2="100%">
    <stop offset="0%" stop-color="#7a7a8a"/>
    <stop offset="100%" stop-color="#3a3a4a"/>
  </linearGradient>
  <radialGradient id="rk" cx="35%" cy="30%" r="65%">
    <stop offset="0%" stop-color="#aaaaaa"/>
    <stop offset="100%" stop-color="#585858"/>
  </radialGradient>
</defs>

<!-- Ground shadow -->
<ellipse cx="34" cy="78" rx="32" ry="3" fill="rgba(0,0,0,0.35)"/>

<!-- Shared wooden base platform -->
<rect x="2" y="66" width="64" height="10" rx="2" fill="url(#wd)"/>
<line x1="24" y1="66" x2="24" y2="76" stroke="#3a2208" stroke-width="0.8" opacity="0.5"/>
<line x1="44" y1="66" x2="44" y2="76" stroke="#3a2208" stroke-width="0.8" opacity="0.5"/>
<rect x="2" y="66" width="64" height="3" rx="1" fill="url(#mt)" opacity="0.5"/>

<!-- Unit 1 (left, center=11) -->
<rect x="5"  y="28" width="5" height="39" rx="1.5" fill="url(#wd)"/>
<rect x="14" y="28" width="5" height="39" rx="1.5" fill="url(#wd)"/>
<rect x="4"  y="36" width="20" height="4" rx="1.5" fill="url(#wd)"/>
<rect x="4"  y="50" width="20" height="4" rx="1.5" fill="url(#wd)"/>
<rect x="4"  y="27" width="8" height="6" rx="1" fill="url(#mt)"/>
<rect x="13" y="27" width="8" height="6" rx="1" fill="url(#mt)"/>
<circle cx="11" cy="28" r="5" fill="url(#mt)"/>
<circle cx="11" cy="28" r="2.5" fill="#505060"/>
<circle cx="11" cy="28" r="1" fill="#2a2a3a"/>
<line x1="11" y1="23" x2="11" y2="5"  stroke="#c8a840" stroke-width="1.5"/>
<line x1="11" y1="33" x2="11" y2="54" stroke="#c8a840" stroke-width="1.5"/>
<circle cx="11" cy="9"  r="6" fill="url(#rk)"/>
<circle cx="9"  cy="7"  r="2" fill="#909090" opacity="0.6"/>
<circle cx="11" cy="3"  r="1.5" fill="url(#mt)"/>

<!-- Unit 2 (middle, center=34) -->
<rect x="27" y="28" width="5" height="39" rx="1.5" fill="url(#wd)"/>
<rect x="36" y="28" width="5" height="39" rx="1.5" fill="url(#wd)"/>
<rect x="26" y="36" width="20" height="4" rx="1.5" fill="url(#wd)"/>
<rect x="26" y="50" width="20" height="4" rx="1.5" fill="url(#wd)"/>
<rect x="26" y="27" width="8" height="6" rx="1" fill="url(#mt)"/>
<rect x="35" y="27" width="8" height="6" rx="1" fill="url(#mt)"/>
<circle cx="34" cy="28" r="5" fill="url(#mt)"/>
<circle cx="34" cy="28" r="2.5" fill="#505060"/>
<circle cx="34" cy="28" r="1" fill="#2a2a3a"/>
<line x1="34" y1="23" x2="34" y2="5"  stroke="#c8a840" stroke-width="1.5"/>
<line x1="34" y1="33" x2="34" y2="54" stroke="#c8a840" stroke-width="1.5"/>
<circle cx="34" cy="9"  r="6" fill="url(#rk)"/>
<circle cx="32" cy="7"  r="2" fill="#909090" opacity="0.6"/>
<circle cx="34" cy="3"  r="1.5" fill="url(#mt)"/>

<!-- Unit 3 (right, center=57) -->
<rect x="49" y="28" width="5" height="39" rx="1.5" fill="url(#wd)"/>
<rect x="58" y="28" width="5" height="39" rx="1.5" fill="url(#wd)"/>
<rect x="48" y="36" width="20" height="4" rx="1.5" fill="url(#wd)"/>
<rect x="48" y="50" width="20" height="4" rx="1.5" fill="url(#wd)"/>
<rect x="48" y="27" width="8" height="6" rx="1" fill="url(#mt)"/>
<rect x="57" y="27" width="8" height="6" rx="1" fill="url(#mt)"/>
<circle cx="57" cy="28" r="5" fill="url(#mt)"/>
<circle cx="57" cy="28" r="2.5" fill="#505060"/>
<circle cx="57" cy="28" r="1" fill="#2a2a3a"/>
<line x1="57" y1="23" x2="57" y2="5"  stroke="#c8a840" stroke-width="1.5"/>
<line x1="57" y1="33" x2="57" y2="54" stroke="#c8a840" stroke-width="1.5"/>
<circle cx="57" cy="9"  r="6" fill="url(#rk)"/>
<circle cx="55" cy="7"  r="2" fill="#909090" opacity="0.6"/>
<circle cx="57" cy="3"  r="1.5" fill="url(#mt)"/>

</svg>
