<svg xmlns="http://www.w3.org/2000/svg" width="68" height="80" viewBox="0 0 68 80">
<defs>
  <linearGradient id="ar" x1="0%" y1="0%" x2="100%" y2="100%"><stop offset="0%" stop-color="#5a90ff"/><stop offset="100%" stop-color="#1a3090"/></linearGradient>
  <linearGradient id="sk" x1="0%" y1="0%" x2="100%" y2="100%"><stop offset="0%" stop-color="#f0c090"/><stop offset="100%" stop-color="#b07040"/></linearGradient>
  <radialGradient id="sh" cx="30%" cy="25%" r="70%"><stop offset="0%" stop-color="#6090ff"/><stop offset="100%" stop-color="#102060"/></radialGradient>
  <linearGradient id="sw" x1="0%" y1="0%" x2="0%" y2="100%"><stop offset="0%" stop-color="#d8e8f0"/><stop offset="50%" stop-color="#f0f8ff"/><stop offset="100%" stop-color="#7090a0"/></linearGradient>
</defs>
<ellipse cx="34" cy="78" rx="16" ry="3" fill="rgba(0,0,0,0.3)"/>
<rect x="35" y="57" width="11" height="20" rx="2" fill="#1a3080"/>
<rect x="20" y="57" width="11" height="20" rx="2" fill="url(#ar)"/>
<rect x="18" y="71" width="15" height="8" rx="2" fill="#0e1840"/>
<rect x="33" y="71" width="15" height="8" rx="2" fill="#0e1840"/>
<rect x="16" y="27" width="34" height="31" rx="3" fill="url(#ar)"/>
<path d="M20 33 L48 33 L48 52 L20 52Z" fill="none" stroke="#8ab0ff" stroke-width="0.7" opacity="0.55"/>
<line x1="34" y1="33" x2="34" y2="52" stroke="#8ab0ff" stroke-width="0.5" opacity="0.4"/>
<ellipse cx="16" cy="29" rx="10" ry="5" fill="#1e3898"/><ellipse cx="15" cy="28" rx="8" ry="4" fill="#2e50c8" stroke="#5070e0" stroke-width="0.5"/>
<ellipse cx="52" cy="29" rx="10" ry="5" fill="#1e3898"/><ellipse cx="53" cy="28" rx="8" ry="4" fill="#2e50c8" stroke="#5070e0" stroke-width="0.5"/>
<path d="M1 24 L15 20 L17 52 L1 56Z" fill="url(#sh)" stroke="#3060a0" stroke-width="0.8"/>
<line x1="7" y1="32" x2="7" y2="48" stroke="#90b8ff" stroke-width="1.5" opacity="0.8"/>
<line x1="3" y1="40" x2="11" y2="40" stroke="#90b8ff" stroke-width="1.5" opacity="0.8"/>
<rect x="52" y="16" width="4" height="44" rx="1" fill="url(#sw)"/>
<rect x="49" y="22" width="10" height="4" rx="1" fill="#c8a020"/>
<ellipse cx="54" cy="17" rx="3" ry="3" fill="#9090a0"/>
<ellipse cx="33" cy="17" rx="13" ry="14" fill="url(#sk)"/>
<path d="M20 17 Q20 3 33 3 Q46 3 46 17Z" fill="#1a3898"/>
<path d="M24 17 Q24 7 33 6 Q42 7 42 17Z" fill="#2848c8"/>
<rect x="31" y="2" width="4" height="8" rx="1" fill="#3060e0"/>
<path d="M27 8 Q33 5 39 8" fill="none" stroke="#7090ff" stroke-width="1.5" opacity="0.7"/>
<rect x="23" y="14" width="20" height="6" rx="1" fill="#080f1e"/>
<rect x="24" y="15" width="8" height="4" rx="0.5" fill="#3060d0" opacity="0.9"/>
<rect x="34" y="15" width="8" height="4" rx="0.5" fill="#3060d0" opacity="0.9"/>
</svg>